<!-- public/MySvg.svg -->
<svg width="429.00000000000006" height="106.82270916334662" viewBox="0 0 369.89473684210526 92.10526315789473" xmlns="http://www.w3.org/2000/svg">
  <defs>
    <linearGradient id="SvgjsLinearGradient1113">
      <stop stop-color="#905e26" offset="0"></stop>
      <stop stop-color="#f5ec9b" offset="0.5"></stop>
      <stop stop-color="#905e26" offset="1"></stop>
    </linearGradient>
    <linearGradient id="SvgjsLinearGradient1117">
      <stop stop-color="#905e26" offset="0"></stop>
      <stop stop-color="#f5ec9b" offset="0.5"></stop>
      <stop stop-color="#905e26" offset="1"></stop>
    </linearGradient>
  </defs>
  <g transform="matrix(1.1808367071524966,0,0,1.1808367071524966,287.5337381916329,-423.32995951417)" fill="url(#SvgjsLinearGradient1113)">
    <path d="M-167.5,390.5c-1.1,0-2-0.9-2-2c0-1.1,0.9-2,2-2c1.1,0,2,0.9,2,2C-165.5,389.6-166.4,390.5-167.5,390.5z M-177.5,428.5c-2.2,0-4-1.8-4-4s1.8-4,4-4c2.2,0,4,1.8,4,4S-175.3,428.5-177.5,428.5z M-177.5,410.5c-2.2,0-4-1.8-4-4s1.8-4,4-4 c2.2,0,4,1.8,4,4S-175.3,410.5-177.5,410.5z M-177.5,392.5c-2.2,0-4-1.8-4-4c0-2.2,1.8-4,4-4c2.2,0,4,1.8,4,4 C-173.5,390.7-175.3,392.5-177.5,392.5z M-177.5,374.5c-2.2,0-4-1.8-4-4c0-2.2,1.8-4,4-4c2.2,0,4,1.8,4,4 C-173.5,372.7-175.3,374.5-177.5,374.5z M-194.5,414.5c-3.9,0-7-3.1-7-7c0-3.9,3.1-7,7-7c3.9,0,7,3.1,7,7 C-187.5,411.4-190.6,414.5-194.5,414.5z M-194.5,394.5c-3.9,0-7-3.1-7-7c0-3.9,3.1-7,7-7c3.9,0,7,3.1,7,7 C-187.5,391.4-190.6,394.5-194.5,394.5z M-195.5,374.5c-2.2,0-4-1.8-4-4c0-2.2,1.8-4,4-4c2.2,0,4,1.8,4,4 C-191.5,372.7-193.3,374.5-195.5,374.5z M-195.5,362.5c-1.1,0-2-0.9-2-2c0-1.1,0.9-2,2-2c1.1,0,2,0.9,2,2 C-193.5,361.6-194.4,362.5-195.5,362.5z M-214.5,414.5c-3.9,0-7-3.1-7-7c0-3.9,3.1-7,7-7s7,3.1,7,7 C-207.5,411.4-210.6,414.5-214.5,414.5z M-214.5,394.5c-3.9,0-7-3.1-7-7c0-3.9,3.1-7,7-7s7,3.1,7,7 C-207.5,391.4-210.6,394.5-214.5,394.5z M-213.5,374.5c-2.2,0-4-1.8-4-4c0-2.2,1.8-4,4-4c2.2,0,4,1.8,4,4 C-209.5,372.7-211.3,374.5-213.5,374.5z M-213.5,362.5c-1.1,0-2-0.9-2-2c0-1.1,0.9-2,2-2c1.1,0,2,0.9,2,2 C-211.5,361.6-212.4,362.5-213.5,362.5z M-231.5,374.5c-2.2,0-4-1.8-4-4c0-2.2,1.8-4,4-4c2.2,0,4,1.8,4,4 C-227.5,372.7-229.3,374.5-231.5,374.5z M-231.5,384.5c2.2,0,4,1.8,4,4c0,2.2-1.8,4-4,4c-2.2,0-4-1.8-4-4 C-235.5,386.3-233.7,384.5-231.5,384.5z M-241.5,408.5c-1.1,0-2-0.9-2-2c0-1.1,0.9-2,2-2c1.1,0,2,0.9,2,2 C-239.5,407.6-240.4,408.5-241.5,408.5z M-241.5,390.5c-1.1,0-2-0.9-2-2c0-1.1,0.9-2,2-2c1.1,0,2,0.9,2,2 C-239.5,389.6-240.4,390.5-241.5,390.5z M-231.5,402.5c2.2,0,4,1.8,4,4s-1.8,4-4,4c-2.2,0-4-1.8-4-4S-233.7,402.5-231.5,402.5z M-231.5,420.5c2.2,0,4,1.8,4,4s-1.8,4-4,4c-2.2,0-4-1.8-4-4S-233.7,420.5-231.5,420.5z M-213.5,420.5c2.2,0,4,1.8,4,4 c0,2.2-1.8,4-4,4c-2.2,0-4-1.8-4-4C-217.5,422.3-215.7,420.5-213.5,420.5z M-213.5,432.5c1.1,0,2,0.9,2,2c0,1.1-0.9,2-2,2 c-1.1,0-2-0.9-2-2C-215.5,433.4-214.6,432.5-213.5,432.5z M-195.5,420.5c2.2,0,4,1.8,4,4c0,2.2-1.8,4-4,4c-2.2,0-4-1.8-4-4 C-199.5,422.3-197.7,420.5-195.5,420.5z M-195.5,432.5c1.1,0,2,0.9,2,2c0,1.1-0.9,2-2,2c-1.1,0-2-0.9-2-2 C-197.5,433.4-196.6,432.5-195.5,432.5z M-167.5,404.5c1.1,0,2,0.9,2,2c0,1.1-0.9,2-2,2c-1.1,0-2-0.9-2-2 C-169.5,405.4-168.6,404.5-167.5,404.5z" style="fill-rule:evenodd; clip-rule:evenodd;"></path>
  </g>
  <g transform="matrix(2.428387422344214,0,0,2.428387422344214,112.14570194844185,16.05233369679521)" fill="url(#SvgjsLinearGradient1117)">
    <path d="M7.96 4.92 l8.02 15.08 l-3.46 0 l-1.16 -2.24 l-6.82 0 l-1.12 2.24 l-3.48 0 z M9.84 15.059999999999999 l-1.88 -3.82 l-1.86 3.82 l3.74 0 z M24.060000000000002 4.92 l8.02 15.08 l-3.46 0 l-1.16 -2.24 l-6.82 0 l-1.12 2.24 l-3.48 0 z M25.94 15.059999999999999 l-1.88 -3.82 l-1.86 3.82 l3.74 0 z M42.830000000000005 6.08 q1.33 0.7 2.05 1.89 t0.72 2.65 t-0.67 2.62 t-2.01 1.83 t-3.24 0.67 l-2.76 0 l0 4.26 l-3.16 0 l0 -14.62 l5.94 0 q1.8 0 3.13 0.7 z M41.84 12.3 q0.58 -0.7 0.58 -1.68 q0 -0.64 -0.3 -1.21 t-0.89 -0.93 t-1.41 -0.36 l-2.9 0 l0 4.88 l3.22 0 q1.12 0 1.7 -0.7 z M62.8 20 l-3.18 0 l0 -6.98 l-4.48 5.2 l-4.48 -5.2 l0 6.98 l-3.18 0 l0 -15.08 l7.66 8.64 l7.66 -8.64 l0 15.08 z M72.55999999999999 4.92 l8.02 15.08 l-3.46 0 l-1.16 -2.24 l-6.82 0 l-1.12 2.24 l-3.48 0 z M74.44 15.059999999999999 l-1.88 -3.82 l-1.86 3.82 l3.74 0 z M81.44 20 l0 -14.62 l6.5 0 q1.56 0 2.76 0.64 t1.86 1.8 t0.66 2.64 q0 1.58 -0.8 2.82 t-2.18 1.82 q1.42 1.8 3.78 4.9 l-3.78 0 q-1.28 -1.6 -3.5 -4.56 l-2.16 0 l0 4.56 l-3.14 0 z M87.94 12.7 q0.82 0 1.48 -0.59 t0.66 -1.65 q0 -0.86 -0.46 -1.6 t-1.68 -0.74 l-3.36 0 l0 4.58 l3.36 0 z M101.9 8.12 l0 11.88 l-3.18 0 l0 -11.88 l-4.26 0 l0 -2.74 l11.68 0 l0 2.74 l-4.24 0 z"></path>
  </g>
</svg>
